<?xml version="1.0" standalone="no"?>
<!DOCTYPE svg PUBLIC "-//W3C//DTD SVG 20010904//EN"
 "http://www.w3.org/TR/2001/REC-SVG-20010904/DTD/svg10.dtd">
<svg version="1.0" xmlns="http://www.w3.org/2000/svg"
 width="500.000000pt" height="500.000000pt" viewBox="0 0 500.000000 500.000000"
 preserveAspectRatio="xMidYMid meet">
<metadata>
Created by potrace 1.14, written by Peter Selinger 2001-2017
</metadata>
<g transform="translate(0.000000,500.000000) scale(0.100000,-0.100000)"
fill="#000000" stroke="none">
<path d="M2569 4393 c-18 -11 -32 -34 -44 -72 -9 -31 -23 -69 -30 -86 -44
-102 -82 -180 -121 -248 -46 -80 -50 -107 -16 -107 31 0 133 144 201 283 29
60 51 79 51 44 0 -22 115 -250 180 -357 35 -58 135 -212 222 -342 87 -131 158
-240 158 -244 0 -3 9 -18 19 -33 26 -36 104 -193 130 -261 12 -30 32 -98 45
-150 121 -479 -58 -847 -477 -980 -172 -54 -529 -42 -580 21 -16 20 -18 44
-16 238 0 119 4 236 8 261 7 44 0 104 -14 118 -12 12 -194 7 -208 -7 -9 -9
-12 -69 -14 -214 -1 -111 -2 -221 -2 -245 l-1 -43 -27 19 c-48 34 -141 135
-178 191 -42 66 -82 178 -84 237 -1 11 -7 29 -15 40 -15 19 -15 19 -34 -1 -20
-20 -20 -22 -2 -105 50 -241 192 -442 391 -553 220 -123 471 -153 763 -92 63
13 189 69 258 114 285 186 418 511 361 883 -13 87 -52 237 -73 283 -5 11 -21
48 -35 83 -59 145 -145 292 -360 617 -197 298 -275 440 -330 600 -39 112 -73
141 -126 108z m-344 -2185 c-3 -79 -9 -159 -14 -178 l-9 -35 -2 30 c-1 17 -2
96 -3 178 -2 132 0 147 15 147 15 0 16 -14 13 -142z"/>
<path d="M2151 3619 c-73 -42 -104 -87 -103 -152 1 -106 11 -191 24 -203 15
-14 40 -18 111 -16 67 3 91 28 83 90 -3 26 -8 94 -11 152 -3 58 -8 115 -10
126 -7 34 -38 34 -94 3z m44 -43 c-18 -27 -48 -49 -83 -60 -23 -8 -23 -7 -8
22 8 16 21 32 28 36 7 3 27 14 43 25 35 21 43 12 20 -23z"/>
<path d="M2668 3602 c-35 -4 -36 -19 -3 -34 14 -6 25 -19 25 -30 0 -11 7 -18
18 -18 10 0 28 -10 39 -22 68 -73 234 -399 312 -613 59 -161 73 -189 97 -193
15 -4 16 6 11 115 -6 118 -9 141 -29 243 -6 30 -11 60 -12 65 -9 48 -45 145
-83 223 -99 204 -215 286 -375 264z"/>
<path d="M2592 3510 c-15 -10 -34 -26 -43 -36 -30 -34 -81 -200 -104 -334 -3
-19 -8 -42 -10 -50 -3 -8 -7 -35 -9 -60 -3 -25 -7 -65 -11 -90 -19 -147 -30
-476 -15 -485 18 -11 16 -20 45 140 8 44 26 143 40 220 14 77 28 154 30 170
20 112 26 140 35 149 10 10 12 6 13 -26 0 -7 -3 -35 -7 -63 -12 -75 -14 -95
-21 -150 -4 -27 -8 -61 -10 -75 -2 -14 -7 -52 -10 -85 -4 -33 -8 -71 -10 -85
-2 -14 -7 -47 -10 -75 -4 -27 -8 -62 -11 -77 -5 -35 10 -36 32 -3 18 27 28 70
74 310 16 83 43 222 60 310 17 88 34 174 36 190 3 17 7 37 11 45 3 8 7 31 10
50 3 19 7 37 8 38 5 5 -36 82 -44 83 -41 5 -55 3 -79 -11z"/>
<path d="M2111 3157 c-17 -4 -33 -12 -37 -18 -3 -6 -6 -128 -6 -272 l0 -261
23 -19 c20 -16 35 -18 99 -13 55 4 78 10 87 23 14 18 18 258 5 278 -4 5 -8 67
-8 138 -1 83 -6 132 -14 142 -13 15 -93 17 -149 2z"/>
<path d="M1765 3008 c-4 -15 14 -99 49 -226 30 -111 72 -275 92 -365 20 -89
38 -165 40 -169 9 -14 30 -8 49 12 15 17 17 31 12 95 -8 85 -34 198 -73 307
-29 83 -143 348 -155 362 -4 5 -11 -2 -14 -16z"/>
<path d="M3259 2466 c-2 -2 -30 -6 -61 -10 -95 -10 -206 -36 -338 -79 -151
-49 -229 -53 -472 -22 -16 2 -28 -1 -28 -6 0 -5 0 -12 0 -16 0 -4 5 -8 12 -9
7 -1 47 -9 88 -18 41 -9 97 -21 124 -26 27 -6 65 -14 85 -20 20 -5 50 -12 66
-14 17 -3 39 -8 50 -10 11 -3 54 -12 95 -21 41 -9 84 -18 95 -21 11 -2 68 -14
128 -27 59 -13 107 -21 107 -17 0 7 -116 62 -195 93 -132 51 -155 61 -155 67
0 4 28 17 63 28 259 87 333 114 341 122 9 9 5 15 -5 6z"/>
<path d="M1847 1388 c-25 -12 -44 -31 -53 -53 -18 -44 -18 -67 3 -113 9 -20
15 -40 15 -44 -3 -15 46 -39 122 -58 98 -26 126 -44 126 -79 0 -41 -36 -69
-91 -72 -42 -2 -50 1 -78 31 -17 19 -31 40 -31 47 0 6 -4 14 -9 17 -4 3 -6 -6
-3 -19 6 -35 -6 -31 -22 5 l-12 31 -31 -61 -32 -60 27 1 c49 3 72 -1 72 -12 0
-6 -9 -8 -20 -4 -13 4 -20 2 -20 -6 0 -7 3 -10 6 -7 3 3 29 0 57 -8 168 -45
299 41 273 180 -6 32 -30 63 -51 66 -5 1 -26 10 -45 20 -19 9 -57 22 -84 29
-55 13 -85 43 -86 83 -1 76 115 61 180 -24 7 -9 62 91 55 102 -5 8 -97 21
-180 25 -34 2 -62 -3 -88 -17z m233 -65 c-20 -36 -21 -36 -15 -8 7 30 24 59
32 51 3 -2 -5 -21 -17 -43z m-200 18 c-5 -11 -10 -32 -10 -48 -1 -26 -2 -27
-15 -10 -13 19 -11 40 8 65 15 19 29 14 17 -7z m97 -207 c-3 -3 -12 -4 -19 -1
-8 3 -5 6 6 6 11 1 17 -2 13 -5z m-67 -196 c0 -11 -22 -10 -39 1 -10 7 -7 9
12 8 15 -1 27 -5 27 -9z m54 -6 c6 -10 -30 -9 -40 1 -4 4 2 7 14 7 11 0 23 -4
26 -8z m56 4 c0 -2 -7 -6 -15 -10 -8 -3 -15 -1 -15 4 0 6 7 10 15 10 8 0 15
-2 15 -4z"/>
<path d="M2377 1402 c-28 -3 -28 -4 -10 -24 16 -18 18 -40 18 -210 1 -172 -1
-190 -17 -199 -18 -9 -25 -30 -10 -28 4 1 16 0 27 -1 17 -2 17 -3 -5 -10 -21
-7 -22 -8 -5 -10 56 -5 177 0 211 9 106 29 155 104 157 239 2 110 -22 157
-100 195 -32 15 -71 30 -88 32 -40 7 -143 11 -178 7z m98 -233 c0 -99 -3 -185
-7 -192 -9 -14 -10 3 -10 213 0 181 0 175 9 166 4 -4 8 -88 8 -187z m120 155
c28 -11 47 -133 33 -212 -16 -90 -66 -146 -123 -138 -19 3 -20 12 -21 177 0
96 2 178 4 182 4 8 79 1 107 -9z m109 -286 c-6 -21 -48 -68 -60 -68 -3 0 3 11
13 24 10 13 25 33 33 45 19 27 23 27 14 -1z"/>
<path d="M2979 1400 c-20 -5 -20 -7 -5 -19 14 -12 16 -40 16 -207 0 -184 -1
-194 -21 -207 l-21 -15 21 -7 c12 -3 19 -11 16 -16 -7 -11 -1 -12 100 -10 102
1 165 22 205 68 48 54 67 117 33 107 -10 -2 -8 1 5 7 19 11 22 20 22 78 0 96
-28 146 -100 183 -30 16 -71 31 -90 34 -51 7 -156 10 -181 4z m222 -76 c31
-19 47 -163 28 -240 -15 -60 -55 -103 -101 -108 l-38 -4 0 183 0 184 51 -4
c28 -3 55 -7 60 -11z m118 -272 c-10 -30 -54 -82 -69 -82 -5 0 2 12 15 26 14
15 25 33 25 40 0 11 26 44 35 44 2 0 0 -13 -6 -28z"/>
<path d="M1770 940 c-12 -7 -10 -9 7 -7 12 0 19 5 17 9 -6 10 -6 10 -24 -2z"/>
</g>
</svg>
